<svg fill="none" height="38" viewBox="0 0 160 38" width="160" xmlns="http://www.w3.org/2000/svg"><path clip-rule="evenodd" d="M20.1242 11.0334C20.1242 13.0217 18.6216 14.6378 16.7689 14.6378C16.2239 14.6378 15.7113 14.4971 15.2563 14.2457C15.2538 14.2482 15.2513 14.2482 15.2513 14.2457C15.2488 14.2457 15.2463 14.2432 15.2463 14.2407C15.2413 14.2432 15.2388 14.2407 15.2338 14.2331C15.1988 14.2156 15.1738 14.1753 15.1738 14.1301C15.1738 14.0673 15.2164 14.0145 15.2763 14.0019C15.2838 13.9994 15.2938 13.9994 15.3013 13.9994C17.0014 13.8235 18.3316 12.2852 18.3316 10.4101C18.3316 9.3267 17.884 8.35646 17.1815 7.69288C17.179 7.69288 17.179 7.69288 17.179 7.69036C17.154 7.66774 17.1415 7.63506 17.1415 7.59988C17.1415 7.52949 17.199 7.47168 17.269 7.47168C17.2765 7.47168 17.2865 7.47168 17.2965 7.47419C18.8992 7.74314 20.1242 9.23369 20.1242 11.0334Z" fill="white" fill-rule="evenodd"></path><path clip-rule="evenodd" d="M25.8198 6.61173C25.4623 6.31261 24.9522 6.71478 25.1498 7.13706C26.6324 10.3343 26.5499 13.9488 24.9622 16.7288C22.782 20.5394 18.2242 22.9297 13.0012 21.1502C12.4911 20.9767 11.9986 20.7555 11.526 20.4941C9.89592 19.5867 8.58077 18.2043 7.8282 16.5679C7.09064 14.9567 6.89562 13.0942 7.50068 11.204C7.65069 10.7364 7.85321 10.2614 8.10822 9.78129C8.99331 8.12489 10.2159 7.00133 11.571 6.32015C11.601 6.30758 11.6335 6.30005 11.6661 6.30005C11.7985 6.30005 11.9086 6.40813 11.9086 6.54386C11.9086 6.59162 11.8961 6.63435 11.8736 6.67205C11.8636 6.68965 11.851 6.70221 11.8385 6.71478C11.176 7.59201 10.6885 8.49187 10.3759 9.39677C9.6434 11.5207 9.77839 13.5969 10.5684 15.276C10.5759 15.2936 10.586 15.3087 10.5934 15.3237C13.7763 20.8711 22.2745 19.9236 23.9121 13.348C24.5497 11.101 23.9072 7.51912 21.817 6.03109C21.4044 5.73449 20.6894 5.52587 20.1493 5.51581C19.7868 5.51581 19.4892 5.81492 19.4892 6.17939C19.4892 6.25983 19.4992 6.33272 19.5293 6.40058C19.5293 6.4207 19.5367 6.43577 19.5467 6.45337C19.5942 6.55643 19.6643 6.6444 19.7543 6.71478C19.7643 6.72232 19.7767 6.73238 19.7868 6.73992C20.3918 7.18733 20.9043 7.70764 21.2194 8.47176C21.7644 9.78129 21.9445 11.2643 21.5544 12.6367C20.2293 18.5235 11.366 17.229 12.9461 10.2991C13.8113 6.87816 17.359 4.57574 21.0619 3.34661C21.2019 3.29885 21.3544 3.3265 21.4719 3.41699C21.8419 3.71108 22.272 4.12581 22.632 4.55061C22.867 4.82709 23.3196 4.70393 23.3896 4.34701C23.6571 3.02487 23.9646 1.82591 24.3397 0.564099C24.4322 0.252418 24.1647 -0.0466949 23.8446 0.00608984C21.1244 0.456017 18.2766 1.40614 16.0014 2.94695C7.21314 2.7886 0 9.94469 0 18.7748C0 26.4814 5.4805 32.901 12.7362 34.3112C13.0611 34.374 13.2012 34.7636 12.9912 35.02L11.9086 36.3496C11.6885 36.6236 11.8585 37.0383 12.2086 37.0685C21.7944 37.9734 29.4651 29.9803 31.1428 21.9721C32.3529 16.206 30.2577 10.3242 25.8198 6.61173ZM4.90294 9.97735C4.19537 11.0205 3.63283 12.2849 3.23029 13.7301C3.00527 14.5621 2.85025 15.3262 2.75524 16.0727C2.64523 16.8544 2.58774 17.6689 2.58273 18.4908C2.56773 19.275 2.60773 20.092 2.69774 20.9189C2.77525 21.6729 2.91026 22.4471 3.11028 23.2867C3.47031 24.7421 3.99035 26.0365 4.66042 27.1374C4.70042 27.2028 4.68792 27.2933 4.63042 27.3411C4.60792 27.3586 4.58291 27.3687 4.5554 27.3687C4.5229 27.3687 4.49041 27.3536 4.4654 27.326C3.65033 26.3809 2.97526 25.0788 2.51523 23.5557C2.28771 22.8192 2.11269 22.0048 1.98268 21.0672C1.87516 20.2528 1.82266 19.3832 1.82766 18.4808C1.84267 17.5608 1.91517 16.6936 2.04268 15.8993C2.2002 14.9618 2.39772 14.1549 2.64274 13.4361C3.14778 11.9304 3.86284 10.6661 4.71542 9.78382C4.76293 9.73605 4.83293 9.73361 4.88044 9.77631C4.93544 9.82409 4.94545 9.91456 4.90294 9.97735ZM18.8442 28.2761C17.9416 31.2094 12.2186 31.3879 11.0885 27.9644C10.966 27.5874 11.3485 27.2531 11.701 27.4265C13.6338 28.3817 16.3115 28.4797 18.2766 27.7281C18.6167 27.5974 18.9492 27.9267 18.8442 28.2761ZM20.9169 23.6939C20.0918 25.4207 17.6315 26.7579 14.6989 26.4865C11.661 26.2049 9.82336 24.5586 9.1533 22.7739C9.14832 22.7639 9.14334 22.7513 9.14334 22.7387C9.13828 22.7287 9.13583 22.7161 9.13086 22.7061C8.9958 22.334 9.40835 22.0023 9.75089 22.2009C9.76084 22.2058 9.77089 22.2109 9.7784 22.2184C9.78835 22.2235 9.80092 22.231 9.80834 22.2385C10.8935 22.867 12.6936 23.6612 14.9388 23.8698C16.564 24.0206 18.4041 23.8597 20.3643 23.0957C20.7369 22.9449 21.0919 23.3294 20.9169 23.6939Z" fill="white" fill-rule="evenodd"></path><path d="M37.0586 17.9423C37.0586 13.4142 40.3471 10.0527 44.6583 10.0527C49.438 10.0527 52.1172 13.331 52.1172 17.5236C52.1172 17.9146 52.0957 18.2901 52.0437 18.6225C51.9978 18.9181 51.7406 19.1336 51.4436 19.1336H42.1292C41.7219 19.1336 41.4188 19.5307 41.5474 19.9185C42.019 21.3776 43.2437 22.2734 44.9921 22.2734C46.2474 22.2734 47.2181 21.8055 47.8366 21.0236C48.0173 20.7928 48.3234 20.7066 48.5868 20.8328L50.874 21.9256C51.1986 22.0795 51.3149 22.4796 51.1343 22.7937C50.0503 24.6776 47.7417 25.8873 44.9369 25.8873C40.1542 25.8843 37.0586 22.3288 37.0586 17.9423ZM42.2915 16.08C43.5192 16.08 45.7851 16.08 46.967 16.08C47.3957 16.08 47.6835 15.6459 47.5335 15.2426C47.1048 14.1037 46.0576 13.3833 44.6614 13.3833C43.3294 13.3833 42.2915 14.0144 41.7464 15.1996C41.5535 15.612 41.8413 16.08 42.2915 16.08Z" fill="white"></path><path d="M53.7207 10.8592C53.7207 10.5976 53.932 10.3851 54.1923 10.3851H57.1194C57.3797 10.3851 57.591 10.5976 57.591 10.8592C57.591 11.2779 58.0809 11.481 58.3871 11.1978C59.2352 10.419 60.4325 10.0527 61.8164 10.0527C65.2152 10.0527 67.5361 12.3583 67.5361 15.8029V25.0808C67.5361 25.3425 67.3249 25.5548 67.0646 25.5548H63.8618C63.6016 25.5548 63.3903 25.3425 63.3903 25.0808V16.6925C63.3903 14.9441 62.2574 13.8021 60.6285 13.8021C58.9994 13.8021 57.8666 14.941 57.8666 16.6925V25.0808C57.8666 25.3425 57.6553 25.5548 57.395 25.5548H54.1923C53.932 25.5548 53.7207 25.3425 53.7207 25.0808V10.8592Z" fill="white"></path><path d="M86.8661 5.01562H89.7963C90.1331 5.01562 90.4026 5.28959 90.4026 5.62512V25.4307C90.4026 25.7693 90.1301 26.0402 89.7963 26.0402H86.8661C86.5293 26.0402 86.2598 25.7662 86.2598 25.4307V5.62512C86.2598 5.28959 86.5293 5.01562 86.8661 5.01562Z" fill="white"></path><path d="M92.6785 5.01562H95.6081C95.9455 5.01562 96.2152 5.28959 96.2152 5.62512V8.57102C96.2152 8.90963 95.9419 9.18056 95.6081 9.18056H92.6785C92.341 9.18056 92.0723 8.90655 92.0723 8.57102V5.62512C92.0723 5.28959 92.3446 5.01562 92.6785 5.01562Z" fill="white"></path><path d="M92.6785 10.3857H95.6081C95.9455 10.3857 96.2152 10.6689 96.2152 11.0168V25.4138C96.2152 25.7617 95.9419 26.0449 95.6081 26.0449H92.6785C92.341 26.0449 92.0723 25.7617 92.0723 25.4138V11.0168C92.0723 10.6689 92.3446 10.3857 92.6785 10.3857Z" fill="white"></path><path d="M97.6421 21.2793L99.647 20.3251C99.932 20.1897 100.266 20.2974 100.428 20.5683C101.23 21.9073 102.492 22.6892 103.953 22.6892C105.113 22.6892 105.778 22.1905 105.778 21.3286C105.778 20.6884 105.281 20.2728 104.287 19.9957L101.717 19.2723C99.2589 18.5766 97.8773 16.939 97.8773 14.7718C97.8773 11.9676 100.199 10.0498 103.597 10.0498C106.325 10.0498 108.536 11.3027 109.598 13.4606C109.749 13.7622 109.611 14.1316 109.304 14.2763L107.32 15.2121C107.052 15.3383 106.699 15.2367 106.549 14.9812C105.982 14.0085 104.862 13.3867 103.597 13.3867C102.52 13.3867 101.885 13.8577 101.885 14.6364C101.885 15.2459 102.382 15.6646 103.515 15.9971L105.918 16.7204C108.432 17.4716 109.786 18.9984 109.786 21.1654C109.786 24.0005 107.464 25.8875 103.955 25.8875C100.876 25.8875 98.3921 24.4254 97.3444 22.0797C97.2105 21.7811 97.348 21.4179 97.6421 21.2793Z" fill="white"></path><path d="M111.914 4.52344H114.845C115.181 4.52344 115.451 4.7974 115.451 5.13293V10.3413C115.451 10.8277 115.993 11.1386 116.394 10.8646C117.202 10.3136 118.243 10.0489 119.401 10.0489C122.799 10.0489 125.12 12.3545 125.12 15.7991V24.9385C125.12 25.2771 124.848 25.548 124.514 25.548H121.584C121.247 25.548 120.977 25.2741 120.977 24.9385V16.6888C120.977 14.9403 119.844 13.7982 118.216 13.7982C116.586 13.7982 115.453 14.9372 115.453 16.6888V24.9385C115.453 25.2771 115.181 25.548 114.847 25.548H111.917C111.58 25.548 111.311 25.2741 111.311 24.9385V5.13293C111.308 4.7974 111.58 4.52344 111.914 4.52344Z" fill="white"></path><path d="M126.775 10.3857H129.931C130.189 10.3857 130.415 10.5458 130.504 10.789L133.049 17.8783C133.242 18.417 133.998 18.417 134.191 17.8783L136.735 10.789C136.821 10.5458 137.051 10.3857 137.308 10.3857H140.465C140.893 10.3857 141.188 10.8198 141.031 11.2199L135.569 25.1645C135.477 25.3985 135.253 25.5524 135.003 25.5524H132.238C131.986 25.5524 131.763 25.3985 131.671 25.1645L126.208 11.2199C126.053 10.8198 126.346 10.3857 126.775 10.3857Z" fill="white"></path><path d="M143.321 4.85645H146.252C146.588 4.85645 146.858 5.13041 146.858 5.46594V8.41184C146.858 8.75045 146.585 9.02134 146.252 9.02134H143.321C142.984 9.02134 142.715 8.74737 142.715 8.41184V5.46594C142.715 5.13041 142.984 4.85645 143.321 4.85645ZM143.321 10.385H146.252C146.588 10.385 146.858 10.659 146.858 10.9945V24.9391C146.858 25.2777 146.585 25.5485 146.252 25.5485H143.321C142.984 25.5485 142.715 25.2746 142.715 24.9391V10.9945C142.715 10.659 142.984 10.385 143.321 10.385Z" fill="white"></path><path d="M151.005 20.0781V14.608C151.005 14.2693 150.732 13.9984 150.398 13.9984H149.073C148.736 13.9984 148.467 13.7245 148.467 13.389V11.0002C148.467 10.6616 148.739 10.3907 149.073 10.3907H150.398C150.735 10.3907 151.005 10.1167 151.005 9.78125V7.55872C151.005 7.22011 151.277 6.94922 151.611 6.94922H154.541C154.878 6.94922 155.148 7.22319 155.148 7.55872V9.78125C155.148 10.1198 155.42 10.3907 155.754 10.3907H158.075C158.412 10.3907 158.682 10.6647 158.682 11.0002V13.389C158.682 13.7276 158.408 13.9984 158.075 13.9984H155.754C155.417 13.9984 155.148 14.2724 155.148 14.608V19.8041C155.148 21.3586 155.977 22.1097 157.717 22.1097C157.784 22.1097 157.855 22.1066 157.934 22.1036C157.968 22.1005 158.001 22.1005 158.036 22.0974C158.384 22.0728 158.684 22.3529 158.684 22.7069V25.0187C158.684 25.3296 158.454 25.5882 158.149 25.6251C157.698 25.6774 157.196 25.7205 156.749 25.7205C153.106 25.7175 151.005 23.6334 151.005 20.0781Z" fill="white"></path><path d="M84.1422 10.3851H81.2119C80.9516 10.3851 80.7434 10.5976 80.7434 10.8562C80.7434 11.2439 80.2933 11.4748 79.9933 11.2347C79.0165 10.4467 77.801 10.0527 76.3495 10.0527C72.1761 10.0527 69.1387 13.1372 69.1387 17.3851C69.1387 21.6639 72.2036 24.8038 76.4322 24.8038C77.7428 24.8038 78.8512 24.5021 79.7453 23.8988C80.0545 23.6894 80.4648 23.9234 80.4648 24.2928V24.7483C80.4648 26.7184 79.1941 27.9128 77.1518 27.9128C75.5871 27.9128 74.3563 27.2172 73.8234 26.0474C73.7224 25.8288 73.4652 25.7087 73.2386 25.7888L70.2838 26.8354C70.0267 26.9277 69.9011 27.2202 70.0053 27.4696C71.0953 30.0338 73.8418 31.6652 77.1518 31.6652C81.4875 31.6652 84.6106 28.7747 84.6106 24.7483V10.8562C84.6106 10.5976 84.3994 10.3851 84.1422 10.3851ZM80.4036 18.1947C80.4036 18.2008 80.4005 18.2101 80.4005 18.2162C80.0942 19.5953 79.0073 20.682 77.6294 20.9775C77.3814 21.0328 77.1242 21.0606 76.8609 21.0606C76.3802 21.0606 75.9209 20.9652 75.5014 20.7928C74.7819 20.5004 74.1786 19.9832 73.7776 19.3275C73.4346 18.7735 73.2386 18.1178 73.2386 17.419C73.2386 15.4088 74.8615 13.7774 76.8609 13.7774C77.06 13.7774 77.2589 13.7927 77.4488 13.8267C78.8603 14.0575 79.9964 15.1041 80.3607 16.4708C80.3638 16.4739 80.3638 16.477 80.3638 16.4801C80.4434 16.7787 80.4862 17.0927 80.4862 17.419C80.4862 17.6837 80.4587 17.9453 80.4036 18.1947Z" fill="white"></path></svg>